<svg id="email-full" xmlns="http://www.w3.org/2000/svg" width="32" height="32">  <defs>    <style>      .cls-2{fill:#721d37}    </style>  </defs>  <g id="Group_725" data-name="Group 725" transform="translate(3.333 6.057)">    <path id="Path_2887" data-name="Path 2887" class="cls-2" d="M17.667 24.281a2 2 0 0 1-1.411-.58L5 12.493v15.615a2 2 0 0 0 1.8 1.98l6.391-6.39a.667.667 0 0 1 .943.943l-5.469 5.467h18L21.2 24.64a.667.667 0 0 1 .943-.943l6.39 6.39a2 2 0 0 0 1.8-1.98V12.494L19.078 23.7a2 2 0 0 1-1.411.581z" transform="translate(-5 -10.221)"/>    <path id="Path_2888" data-name="Path 2888" class="cls-2" d="M18.343 21.62 30.128 9.884a1.99 1.99 0 0 0-1.589-.8H7.205a1.99 1.99 0 0 0-1.589.8L17.4 21.62a.668.668 0 0 0 .943 0z" transform="translate(-5.205 -9.085)"/>  </g></svg>