<svg id="phone-full" xmlns="http://www.w3.org/2000/svg" width="32" height="32" viewBox="0 0 32 32">  <defs>    <style>      .cls-2{fill:#721d37}    </style>  </defs>  <g id="Group_738" data-name="Group 738" transform="translate(8.014 3.333)">    <circle id="Ellipse_60" data-name="Ellipse 60" class="cls-2" cx=".667" cy=".667" r=".667" transform="translate(7.305 20)"/>    <path id="Path_2909" data-name="Path 2909" class="cls-2" d="M25.993 5H14.021a2 2 0 0 0-2 2v21.333a2 2 0 0 0 2 2h11.972a2 2 0 0 0 2-2V7a2 2 0 0 0-2-2zm-6 22.667a2 2 0 1 1 2-2 2 2 0 0 1-2 2zm2-17.333h-4a.667.667 0 0 1 0-1.333h4a.667.667 0 1 1 0 1.333z" transform="translate(-12.021 -5)"/>  </g></svg>