<svg id="address-full" xmlns="http://www.w3.org/2000/svg" width="32" height="32" viewBox="0 0 32 32">  <defs>    <style>      .cls-2{fill:#721d37}    </style>  </defs>  <g id="Group_731" data-name="Group 731" transform="translate(9.5 3.333)">    <path id="Path_2899" data-name="Path 2899" class="cls-2" d="M23.15 12a2.2 2.2 0 1 0 2.2 2.2 2.2 2.2 0 0 0-2.2-2.2z" transform="translate(-16.483 -7.333)"/>    <path id="Path_2900" data-name="Path 2900" class="cls-2" d="M20.917 5a6.674 6.674 0 0 0-6.667 6.667c0 5.674 2.121 13.917 5.673 17.889a1.335 1.335 0 0 0 1.988 0c3.551-3.971 5.673-12.214 5.673-17.889A6.675 6.675 0 0 0 20.917 5zm0 10.4a3.533 3.533 0 1 1 3.533-3.533 3.538 3.538 0 0 1-3.533 3.533z" transform="translate(-14.25 -5)"/>  </g></svg>