<svg xmlns="http://www.w3.org/2000/svg" width="32" height="32" viewBox="0 0 32 32">  <path data-name="Path 2924" d="M28 7H8.667A1.666 1.666 0 0 0 7 8.667V28a1.666 1.666 0 0 0 1.667 1.667H28A1.666 1.666 0 0 0 29.667 28V8.667A1.666 1.666 0 0 0 28 7zM13.707 26.359h-3.374V15.513h3.375zm-1.686-12.328a1.955 1.955 0 1 1 1.954-1.955 1.954 1.954 0 0 1-1.954 1.955zm14.312 12.328h-3.37v-5.274c0-1.258-.022-2.876-1.752-2.876-1.754 0-2.021 1.371-2.021 2.786v5.365h-3.368V15.513h3.231V17h.047a3.543 3.543 0 0 1 3.19-1.752c3.413 0 4.044 2.246 4.044 5.167z" transform="translate(-2.333 -2.333)" style="fill:#721d37"/></svg>