<svg xmlns="http://www.w3.org/2000/svg" width="32" height="32" viewBox="0 0 32 32">  <path data-name="Path 2927" d="M18 6a12 12 0 0 0-3.793 23.387c.6.11.819-.261.819-.579 0-.285-.011-1.039-.016-2.041-3.338.725-4.043-1.609-4.043-1.609A3.178 3.178 0 0 0 9.635 23.4c-1.09-.745.082-.729.082-.729a2.519 2.519 0 0 1 1.838 1.237 2.556 2.556 0 0 0 3.493 1 2.56 2.56 0 0 1 .762-1.6c-2.665-.3-5.466-1.332-5.466-5.931a4.639 4.639 0 0 1 1.235-3.22 4.319 4.319 0 0 1 .118-3.176s1.007-.323 3.3 1.231a11.37 11.37 0 0 1 6.008 0c2.291-1.553 3.3-1.231 3.3-1.231a4.307 4.307 0 0 1 .119 3.176 4.629 4.629 0 0 1 1.234 3.22c0 4.61-2.806 5.624-5.479 5.921a2.862 2.862 0 0 1 .815 2.222c0 1.6-.015 2.9-.015 3.292 0 .321.216.695.825.577A12 12 0 0 0 18 6z" transform="translate(-2 -2)" style="fill-rule:evenodd;fill:#721d37"/></svg>