<svg id="instagram" xmlns="http://www.w3.org/2000/svg" width="32" height="32" viewBox="0 0 32 32">  <defs>    <style>      .cls-2{fill:#721d37}    </style>  </defs>  <g id="Group_757" data-name="Group 757" transform="translate(4.667 4.667)">    <path id="Path_2925" data-name="Path 2925" class="cls-2" d="M18.333 9.042c3.026 0 3.385.011 4.579.066a6.271 6.271 0 0 1 2.1.391 3.747 3.747 0 0 1 2.151 2.151 6.271 6.271 0 0 1 .391 2.1c.055 1.195.066 1.553.066 4.579s-.011 3.385-.066 4.579a6.271 6.271 0 0 1-.391 2.1 3.747 3.747 0 0 1-2.151 2.151 6.271 6.271 0 0 1-2.1.391c-1.195.055-1.553.066-4.579.066s-3.385-.011-4.579-.066a6.271 6.271 0 0 1-2.1-.391A3.747 3.747 0 0 1 9.5 25.017a6.271 6.271 0 0 1-.391-2.1c-.055-1.195-.066-1.553-.066-4.579s.011-3.385.066-4.579a6.271 6.271 0 0 1 .391-2.1A3.747 3.747 0 0 1 11.649 9.5a6.271 6.271 0 0 1 2.1-.391c1.195-.055 1.553-.066 4.579-.066m0-2.042c-3.078 0-3.464.013-4.673.068a8.333 8.333 0 0 0-2.751.527 5.8 5.8 0 0 0-3.315 3.315 8.333 8.333 0 0 0-.527 2.751C7.013 14.869 7 15.255 7 18.333s.013 3.464.068 4.673a8.333 8.333 0 0 0 .527 2.751 5.8 5.8 0 0 0 3.315 3.315 8.333 8.333 0 0 0 2.751.527c1.209.055 1.595.068 4.673.068s3.464-.013 4.673-.068a8.333 8.333 0 0 0 2.751-.527 5.8 5.8 0 0 0 3.315-3.315 8.333 8.333 0 0 0 .527-2.751c.055-1.209.068-1.595.068-4.673s-.013-3.464-.068-4.673a8.333 8.333 0 0 0-.527-2.751 5.8 5.8 0 0 0-3.315-3.315 8.333 8.333 0 0 0-2.751-.527C21.8 7.013 21.411 7 18.333 7z" transform="translate(-7 -7)"/>    <path id="Path_2926" data-name="Path 2926" class="cls-2" d="M21.09 15.27a5.82 5.82 0 1 0 5.82 5.82 5.82 5.82 0 0 0-5.82-5.82zm0 9.6a3.778 3.778 0 1 1 3.778-3.778 3.778 3.778 0 0 1-3.778 3.776z" transform="translate(-9.757 -9.757)"/>    <circle id="Ellipse_61" data-name="Ellipse 61" class="cls-2" cx="1.36" cy="1.36" r="1.36" transform="translate(16.023 3.924)"/>  </g></svg>